USFL
nRows=125
nColumns=2
inDegrees=yes
endheader
time	med_gas_r	
3.22077	 52.414136	
3.29234	 52.357665	
3.36391	 52.306159	
3.43548	 52.349695	
3.50706	 52.358212	
3.57863	 52.314844	
3.6502	 52.309827	
3.72177	 52.326471	
3.79335	 52.298633	
3.86492	 52.262970	
3.93649	 52.294701	
4.00806	 52.325228	
4.07964	 52.367085	
4.15121	 52.341812	
4.22278	 52.357941	
4.29435	 52.370928	
4.36593	 52.315458	
4.4375	 52.319086	
4.50907	 52.274441	
4.58065	 52.297335	
4.65222	 52.304007	
4.72379	 52.308131	
4.79536	 52.334195	
4.86694	 52.367014	
4.93851	 52.374911	
5.01008	 52.364310	
5.08165	 52.404851	
5.15323	 52.410697	
5.2248	 52.406887	
5.29637	 52.391845	
5.36794	 52.383858	
5.43952	 52.343198	
5.51109	 52.287221	
5.58266	 52.209252	
5.65423	 52.213740	
5.72581	 52.239718	
5.79738	 52.228275	
5.86895	 50.269994	
5.94052	 49.852100	
6.0121	 47.102903	
6.08367	 44.816988	
6.15524	 38.427894	
6.22681	 37.783556	
6.29839	 37.258782	
6.36996	 36.527109	
6.44153	 36.141722	
6.5131	 36.108617	
6.58468	 36.045300	
6.65625	 35.609235	
6.72782	 35.765007	
6.7994	 35.910829	
6.87097	 35.919565	
6.94254	 35.995713	
7.01411	 35.979483	
7.08569	 35.907738	
7.15726	 36.031821	
7.22883	 36.003097	
7.3004	 35.810310	
7.37198	 35.765115	
7.44355	 35.521758	
7.51512	 35.170457	
7.58669	 35.153317	
7.65827	 35.126395	
7.72984	 35.192141	
7.80141	 35.202604	
7.87298	 35.205640	
7.94456	 35.137394	
8.01613	 35.120451	
8.0877	 35.146961	
8.15927	 35.081027	
8.23085	 35.080721	
8.30242	 34.953660	
8.37399	 34.857878	
8.44556	 34.750272	
8.51714	 34.778714	
8.58871	 34.766448	
8.66028	 34.842754	
8.73185	 34.854020	
8.80343	 34.752494	
8.875	 34.744211	
8.94657	 34.730156	
9.01815	 34.758681	
9.08972	 34.747653	
9.16129	 34.623371	
9.23286	 34.586375	
9.30444	 34.586362	
9.37601	 34.620500	
9.44758	 34.639791	
9.51915	 34.728246	
9.59073	 34.669123	
9.6623	 34.578045	
9.73387	 34.587900	
9.80544	 34.667201	
9.87702	 34.708088	
9.94859	 34.730880	
10.0202	 34.675161	
10.0917	 34.591042	
10.1633	 34.530736	
10.2349	 34.560814	
10.3065	 34.587776	
10.378	 34.755901	
10.4496	 39.845100	
10.5212	 42.065513	
10.5927	 43.007059	
10.6643	 46.439633	
10.7359	 52.186823	
10.8075	 53.690586	
10.879	 53.858057	
10.9506	 54.291981	
11.0222	 54.017618	
11.0937	 54.154818	
11.1653	 54.094892	
11.2369	 54.117844	
11.3085	 54.044604	
11.38	 54.161691	
11.4516	 54.092134	
11.5232	 54.067217	
11.5948	 54.085284	
11.6663	 54.062469	
11.7379	 54.011420	
11.8095	 54.017950	
11.881	 54.063020	
11.9526	 54.067154	
12.0242	 54.087739	
12.0958	 53.978546	
